<svg xmlns="http://www.w3.org/2000/svg" viewBox="0 0 512 512">
  <!-- Path dari FaLeaf icon -->
  <path 
    fill="#059669" 
    d="M384 32H64C28.65 32 0 60.65 0 96v320c0 35.35 28.65 64 64 64h320c35.35 0 64-28.65 64-64V96C448 60.65 419.3 32 384 32zM336 152c0 79.41-64.59 144-144 144C183.6 296 176 295.3 168.6 294.1C179.9 311.9 196.3 324.4 215.1 329.1c-10.03 22.1-29.39 40.41-56.21 51.05c-3.287 1.287-6.615-1.267-5.934-4.686C159.2 343.5 145.7 324.5 130.8 310.2C74.21 285.3 32 235.4 32 176c0-79.41 64.59-144 144-144S336 96.59 336 176z"
  />
</svg>